<svg version="1.2" xmlns="http://www.w3.org/2000/svg" viewBox="0 0 300 300" width="300" height="300">
	<title>qmark-icn</title>
	<style>
		.s0 { fill: #000000 } 
	</style>
	<path id="qmark" fill-rule="evenodd" class="s0" d="m185.2 14.1c32.5 1.1 54.6 57.1 43.3 94-4.4 14.4-12.3 27.5-20.5 38.4q-5.1 6-10.2 12 0 0.1 0 0.3c22 9.7 8.6 58-20 52.1-12.5-2.5-22.3-18.6-9.9-28.4 3.3-2.6 18.6-9.8 19 0.3-2.7 6-12 4.5-12.3 12.6 6.2 11.8 23.3-3.1 21.4-14.9-0.7-4.6-2.5-8.6-5.6-10.9-3-2.2-9.6-2.7-7.6-9.6 2.1-7.2 8.2-2.7 12.3-3.6 7.5-2.7 11.6-13.4 15.5-19.9 5.8-9.4 11.2-20.3 14.1-32.5 5.8-24.5-9.2-48.7-19-61.2-3.1-3.9-9.1-8.5-13.8-10.6-4.3-1.8-10-2.3-12.6-5.8-4.5-6.3 1.3-10.3 5.9-12.3zm-36.7 12.6c11-0.2 20.4 1.7 27.3 5.8 21 12.5 40.6 52 26.9 85.6-15.4 37.9-62.3 47-77.3 84.9-7.2 18.1-1.3 38.2 15.8 41.6 11 2.3 16.8-10.9 9.4-14.3-3.8-1.3-7 0.6-8.5-3.5-2.9-7 6.8-8.8 11.7-6.8 9.2 3.8 11.6 18.6 5.3 27.3-3.1 4.1-7.4 6.4-13.5 7.6-18.6 3.5-32.7-14.9-35.7-28.7-3.8-17.5 5.2-33.8 12-43.4 11.8-16.7 33.1-32.2 49.2-45.1 6.3-5.1 13-11.1 17.3-18.2 6.8-11.3 8.3-32.6 3.2-47.1-2.6-7.6-6.4-14.4-10.8-20.3-21-27.3-74-9.5-79.1 20.8-2.7 15.8 10.3 28.6 20.2 32.3 8.2 3 18.7 0.3 22.5-4.7 5.9-7.5 0.5-13.6-0.6-21.4q0.3-0.3 0.6-0.6 0.6 0 1.2 0c18.2 14.5 1 43.5-22.8 39.3-12.5-2.2-22-9.6-27.6-18.8-2.4-4-4.4-9-5.6-14-6.8-29.3 18.3-47.5 37.5-54.2q6.5-1.6 12.9-3.3 4.3-0.4 8.5-0.8zm-50.6 198.9c2.3 1.7 1.7 8.4 2.6 11.4 2.1 7.1 5.9 13.8 11.1 17.9 4.1 3.2 8.9 5.9 15 7 7.7 1.4 15.7-3.5 21.6-1.2 3 1.2 5.7 5.7 3.3 9.4-3.9 5.8-22.2 5.6-30.2 3.5-16.8-4.2-20.3-14.8-23.4-33.1-0.8-4.2-1.6-11.2 0-14.9z"/>
</svg>